# Blender v2.79 (sub 0) OBJ File: 'tower map tutorial.blend'
# www.blender.org
o Cube.001_Cube
v 1.748410 0.677329 -2.229074
v 1.748410 0.803444 -2.229074
v 2.133306 0.677329 -2.779524
v 2.133306 0.803444 -2.779524
v 2.043400 0.677329 -2.022805
v 2.043400 0.803444 -2.022805
v 2.428297 0.677329 -2.573255
v 2.428297 0.803444 -2.573255
vn -0.8195 0.0000 -0.5730
vn 0.5730 0.0000 -0.8195
vn 0.8195 0.0000 0.5730
vn -0.5730 0.0000 0.8195
vn 0.0000 -1.0000 -0.0000
vn 0.0000 1.0000 0.0000
s off
f 1//1 2//1 4//1 3//1
f 3//2 4//2 8//2 7//2
f 7//3 8//3 6//3 5//3
f 5//4 6//4 2//4 1//4
f 3//5 7//5 5//5 1//5
f 8//6 4//6 2//6 6//6
