# Blender v2.79 (sub 0) OBJ File: 'tower map tutorial.blend'
# www.blender.org
o Cube.011_Cube.013
v -0.297475 1.999996 -3.480496
v 0.083118 1.999996 -3.491921
v 0.462769 1.999996 -3.462826
v 0.837177 1.999996 -3.393542
v 1.202099 1.999996 -3.284853
v 1.553402 1.999996 -3.137991
v 1.887103 1.999996 -2.954620
v 2.199423 1.999996 -2.736818
v 2.486823 1.999996 -2.487052
v -0.239755 1.999996 -2.788821
v -0.297475 2.200003 -3.480496
v 0.083118 2.200003 -3.491921
v 0.462769 2.200003 -3.462826
v 0.837177 2.200003 -3.393542
v 1.202099 2.200003 -3.284853
v 1.553402 2.200003 -3.137991
v 1.887103 2.200003 -2.954620
v 2.199423 2.200003 -2.736818
v 2.486823 2.200003 -2.487052
v 0.066990 1.999996 -2.798028
v 0.372977 1.999996 -2.774580
v 0.674737 1.999996 -2.718739
v 0.968853 1.999996 -2.631139
v -0.239755 2.200003 -2.788821
v 0.066990 2.200003 -2.798028
v 0.372977 2.200003 -2.774580
v 0.674737 2.200003 -2.718739
v 0.968853 2.200003 -2.631139
v 1.251991 2.200003 -2.512773
v 1.251991 1.999996 -2.512773
v 1.520943 2.200003 -2.364982
v 1.520943 1.999996 -2.364982
v 1.772663 2.200003 -2.189441
v 1.772663 1.999996 -2.189441
v 2.004297 2.200003 -1.988138
v 2.004297 1.999996 -1.988138
vn 0.9965 0.0000 -0.0832
vn 0.0000 -1.0000 -0.0000
vn -0.7886 0.0000 -0.6149
vn -0.9008 0.0000 -0.4343
vn 0.0000 1.0000 0.0000
vn -0.3857 0.0000 0.9226
vn -0.2854 0.0000 0.9584
vn -0.1820 0.0000 0.9833
vn -0.0764 0.0000 0.9971
vn 0.0300 0.0000 0.9995
vn -0.5720 0.0000 0.8202
vn -0.4816 0.0000 0.8764
vn -0.6560 0.0000 0.7548
vn 0.7188 0.0000 0.6952
s off
f 11//1 24//1 10//1 1//1
f 7//2 8//2 34//2 32//2
f 18//3 8//3 34//3 33//3
f 16//4 6//4 30//4 29//4
f 11//5 24//5 25//5 12//5
f 5//2 23//2 22//2 4//2
f 15//5 28//5 29//5 16//5
f 2//2 20//2 10//2 1//2
f 12//5 25//5 26//5 13//5
f 23//6 30//6 29//6 28//6
f 22//7 23//7 28//7 27//7
f 21//8 22//8 27//8 26//8
f 20//9 21//9 26//9 25//9
f 10//10 20//10 25//10 24//10
f 14//5 27//5 28//5 15//5
f 4//2 22//2 21//2 3//2
f 13//5 26//5 27//5 14//5
f 3//2 21//2 20//2 2//2
f 6//2 30//2 23//2 5//2
f 32//11 34//11 33//11 31//11
f 30//12 32//12 31//12 29//12
f 6//2 7//2 32//2 30//2
f 18//5 17//5 31//5 33//5
f 17//5 16//5 29//5 31//5
f 34//13 36//13 35//13 33//13
f 8//2 9//2 36//2 34//2
f 19//5 18//5 33//5 35//5
f 9//14 19//14 35//14 36//14
