# Blender v2.79 (sub 0) OBJ File: 'tower map tutorial.blend'
# www.blender.org
o Cube.012_Cube.014
v 3.529636 0.000000 -0.496701
v 3.447890 0.000000 -0.868587
v 3.327075 0.000000 -1.229683
v 3.168565 0.000000 -1.575886
v 2.974154 0.000000 -1.903279
v 2.746046 0.000000 -2.208152
v 2.486823 0.000000 -2.487052
v 2.199423 0.000000 -2.736818
v 1.887103 0.000000 -2.954620
v 1.553402 0.000000 -3.137991
v 1.202099 0.000000 -3.284853
v 0.837177 0.000000 -3.393542
v 0.462769 0.000000 -3.462826
v 0.083118 0.000000 -3.491921
v -0.297475 0.000000 -3.480496
v -0.297475 0.200000 -3.480496
v 0.083118 0.200000 -3.491921
v 0.462769 0.200000 -3.462826
v 0.837177 0.200000 -3.393542
v 1.202099 0.200000 -3.284853
v 1.553402 0.200000 -3.137991
v 1.887103 0.200000 -2.954620
v 2.199423 0.200000 -2.736818
v 2.486823 0.200000 -2.487052
v 2.746046 0.200000 -2.208152
v 2.974154 0.200000 -1.903279
v 3.168565 0.200000 -1.575886
v 3.327075 0.200000 -1.229683
v 3.447890 0.200000 -0.868587
v 3.529636 0.200000 -0.496701
v 2.778886 0.000000 -0.683707
v 2.681514 0.000000 -0.974740
v 2.553760 0.000000 -1.253768
v 2.397071 0.000000 -1.517636
v 2.213223 0.000000 -1.763353
v 2.004297 0.000000 -1.988138
v 1.772663 0.000000 -2.189441
v 1.520943 0.000000 -2.364982
v 1.251991 0.000000 -2.512773
v 0.968853 0.000000 -2.631139
v 0.674737 0.000000 -2.718739
v 0.372977 0.000000 -2.774580
v 0.066990 0.000000 -2.798028
v -0.239755 0.000000 -2.788821
v -0.239755 0.200000 -2.788821
v 0.066990 0.200000 -2.798028
v 0.372977 0.200000 -2.774580
v 0.674737 0.200000 -2.718739
v 0.968853 0.200000 -2.631139
v 1.251991 0.200000 -2.512773
v 1.520943 0.200000 -2.364982
v 1.772663 0.200000 -2.189441
v 2.004297 0.200000 -1.988138
v 2.213223 0.200000 -1.763353
v 2.397071 0.200000 -1.517636
v 2.553760 0.200000 -1.253768
v 2.681516 0.200000 -0.974734
v 2.844771 0.000000 -0.383980
v 2.778886 0.200000 -0.683707
v 2.844771 0.200000 -0.383980
vn 0.1624 0.0000 0.9867
vn 0.0000 -1.0000 0.0000
vn 0.0000 1.0000 0.0000
vn 0.2664 0.0000 0.9639
vn -0.9483 0.0000 0.3173
vn -0.9092 -0.0000 0.4163
vn -0.8598 0.0000 0.5106
vn -0.8007 0.0000 0.5991
vn -0.7325 0.0000 0.6808
vn -0.6560 0.0000 0.7548
vn -0.5720 0.0000 0.8202
vn -0.4816 0.0000 0.8764
vn -0.3857 0.0000 0.9226
vn -0.2854 0.0000 0.9584
vn -0.1820 0.0000 0.9833
vn -0.0764 0.0000 0.9971
vn 0.0300 0.0000 0.9995
vn -0.9965 0.0000 0.0832
vn -0.9767 0.0000 0.2147
s off
f 1//1 30//1 60//1 58//1
f 11//2 40//2 41//2 12//2
f 28//3 57//3 59//3 29//3
f 21//3 50//3 51//3 22//3
f 10//2 39//2 40//2 11//2
f 2//2 31//2 32//2 3//2
f 22//3 51//3 52//3 23//3
f 9//2 38//2 39//2 10//2
f 29//4 59//4 31//4 2//4
f 23//3 52//3 53//3 24//3
f 8//2 37//2 38//2 9//2
f 24//3 53//3 54//3 25//3
f 7//2 36//2 37//2 8//2
f 25//3 54//3 55//3 26//3
f 6//2 35//2 36//2 7//2
f 26//3 55//3 56//3 27//3
f 5//2 34//2 35//2 6//2
f 27//3 56//3 57//3 28//3
f 4//2 33//2 34//2 5//2
f 32//5 31//5 59//5 57//5
f 33//6 32//6 57//6 56//6
f 34//7 33//7 56//7 55//7
f 35//8 34//8 55//8 54//8
f 36//9 35//9 54//9 53//9
f 37//10 36//10 53//10 52//10
f 38//11 37//11 52//11 51//11
f 39//12 38//12 51//12 50//12
f 40//13 39//13 50//13 49//13
f 41//14 40//14 49//14 48//14
f 42//15 41//15 48//15 47//15
f 43//16 42//16 47//16 46//16
f 44//17 43//17 46//17 45//17
f 20//3 49//3 50//3 21//3
f 12//2 41//2 42//2 13//2
f 19//3 48//3 49//3 20//3
f 13//2 42//2 43//2 14//2
f 18//3 47//3 48//3 19//3
f 14//2 43//2 44//2 15//2
f 17//3 46//3 47//3 18//3
f 16//3 45//3 46//3 17//3
f 15//18 44//18 45//18 16//18
f 3//2 32//2 33//2 4//2
f 31//19 58//19 60//19 59//19
f 30//3 29//3 59//3 60//3
f 2//2 1//2 58//2 31//2
