# Blender v2.79 (sub 0) OBJ File: 'tower map tutorial.blend'
# www.blender.org
o Cube_Cube.006
v 3.327078 1.999996 -1.229676
v 3.447890 1.999996 -0.868586
v 3.529636 1.999996 -0.496700
v 3.571390 1.999996 -0.118232
v 3.572678 1.999996 0.262531
v 3.533487 1.999996 0.641273
v 3.327075 2.200003 -1.229683
v 3.447890 2.200003 -0.868586
v 3.529636 2.200003 -0.496700
v 3.571390 2.200003 -0.118232
v 3.572678 2.200003 0.262531
v 3.533487 2.200003 0.641273
v 2.681516 1.999996 -0.974734
v 2.778886 1.999996 -0.683707
v 2.681516 2.200003 -0.974734
v 2.778886 2.200003 -0.683707
v 2.844771 2.200003 -0.383979
v 2.844771 1.999996 -0.383979
v 2.878423 2.200003 -0.078946
v 2.878423 1.999996 -0.078946
v 2.879462 2.200003 0.227936
v 2.879462 1.999996 0.227936
v 2.847875 2.200003 0.533190
v 2.847875 1.999996 0.533190
vn 0.0000 -1.0000 -0.0000
vn 0.0000 1.0000 -0.0000
vn 0.1624 0.0000 0.9867
vn -0.3673 -0.0000 -0.9301
vn -0.9767 0.0000 0.2147
vn -0.9483 0.0000 0.3173
vn -0.9947 0.0000 -0.1029
vn -1.0000 0.0000 0.0034
vn -0.9940 0.0000 0.1097
vn -0.1557 0.0000 0.9878
s off
f 5//1 6//1 24//1 22//1
f 10//2 9//2 17//2 19//2
f 3//1 4//1 20//1 18//1
f 9//3 17//3 18//3 3//3
f 7//2 15//2 16//2 8//2
f 7//4 1//4 13//4 15//4
f 14//5 18//5 17//5 16//5
f 13//6 14//6 16//6 15//6
f 3//1 18//1 14//1 2//1
f 8//2 16//2 17//2 9//2
f 2//1 14//1 13//1 1//1
f 22//7 24//7 23//7 21//7
f 20//8 22//8 21//8 19//8
f 18//9 20//9 19//9 17//9
f 12//2 11//2 21//2 23//2
f 4//1 5//1 22//1 20//1
f 11//2 10//2 19//2 21//2
f 6//10 12//10 23//10 24//10
