# Blender v2.79 (sub 0) OBJ File: 'tower map tutorial.blend'
# www.blender.org
o Cube.002_Cube.001
v 1.494359 1.570907 3.655592
v 1.494359 1.697022 3.655592
v 1.154263 1.570907 2.796784
v 1.154263 1.697022 2.796784
v 1.829026 1.570907 3.523061
v 1.829026 1.697022 3.523061
v 1.488930 1.570907 2.664253
v 1.488930 1.697022 2.664253
vn -0.9298 0.0000 0.3682
vn -0.3682 0.0000 -0.9298
vn 0.9298 0.0000 -0.3682
vn 0.3682 0.0000 0.9298
vn 0.0000 -1.0000 0.0000
vn 0.0000 1.0000 0.0000
s off
f 1//1 2//1 4//1 3//1
f 3//2 4//2 8//2 7//2
f 7//3 8//3 6//3 5//3
f 5//4 6//4 2//4 1//4
f 3//5 7//5 5//5 1//5
f 8//6 4//6 2//6 6//6
