# Blender v2.79 (sub 0) OBJ File: 'tower map tutorial.blend'
# www.blender.org
o Cube.003_Cube.002
v 1.662454 2.536706 -2.109528
v 1.662454 2.662821 -2.109528
v 2.204908 2.536706 -2.857165
v 2.204908 2.662821 -2.857165
v 1.953799 2.536706 -1.898140
v 1.953799 2.662821 -1.898140
v 2.496253 2.536706 -2.645777
v 2.496253 2.662821 -2.645777
vn -0.8094 0.0000 -0.5873
vn 0.5873 0.0000 -0.8094
vn 0.8094 0.0000 0.5873
vn -0.5873 0.0000 0.8094
vn 0.0000 -1.0000 -0.0000
vn 0.0000 1.0000 0.0000
s off
f 1//1 2//1 4//1 3//1
f 3//2 4//2 8//2 7//2
f 7//3 8//3 6//3 5//3
f 5//4 6//4 2//4 1//4
f 3//5 7//5 5//5 1//5
f 8//6 4//6 2//6 6//6
