# Blender v2.79 (sub 0) OBJ File: 'tower map tutorial.blend'
# www.blender.org
o Cube.006_Cube.008
v -0.297475 0.000000 -3.480496
v -0.674698 0.000000 -3.428681
v -0.674698 25.197275 -3.428681
v -0.297475 25.197275 -3.480496
v -0.674698 0.200000 -3.428681
v -0.297475 0.200000 -3.480496
v -0.543784 0.000000 -2.747060
v -0.543784 25.197275 -2.747060
v -0.239755 25.197275 -2.788821
v -0.543784 0.200000 -2.747060
v -0.239755 0.000000 -2.788821
v -0.239755 0.200000 -2.788821
v -0.674698 1.000000 -3.428681
v -0.297475 1.000000 -3.480496
v -0.543784 1.000000 -2.747060
v -0.239755 1.000000 -2.788821
v -0.674698 1.200000 -3.428681
v -0.297475 1.200000 -3.480496
v -0.543784 1.200000 -2.747060
v -0.239755 1.200000 -2.788821
v -0.674698 1.999996 -3.428681
v -0.297475 1.999996 -3.480496
v -0.543784 1.999996 -2.747060
v -0.239755 1.999996 -2.788821
v -0.674698 2.200003 -3.428681
v -0.297475 2.200003 -3.480496
v -0.543784 2.200003 -2.747060
v -0.239755 2.200003 -2.788821
v -0.674698 2.999999 -3.428681
v -0.297475 2.999999 -3.480496
v -0.543784 2.999999 -2.747060
v -0.239755 2.999999 -2.788821
v -0.674698 3.199996 -3.428681
v -0.297475 3.199996 -3.480496
v -0.543784 3.199996 -2.747060
v -0.239755 3.199996 -2.788821
v -0.674698 4.000004 -3.428681
v -0.297475 4.000004 -3.480496
v -0.543784 4.000004 -2.747060
v -0.239755 4.000004 -2.788821
vn 0.0000 -1.0000 -0.0000
vn 0.1361 0.0000 0.9907
vn -0.9821 0.0000 0.1886
vn 0.9965 0.0000 -0.0832
s off
f 3//1 4//1 9//1 8//1
f 39//2 40//2 9//2 8//2
f 7//2 11//2 12//2 10//2
f 37//3 39//3 8//3 3//3
f 2//3 7//3 10//3 5//3
f 14//4 16//4 12//4 6//4
f 1//1 11//1 7//1 2//1
f 18//4 20//4 16//4 14//4
f 5//3 10//3 15//3 13//3
f 10//2 12//2 16//2 15//2
f 22//4 24//4 20//4 18//4
f 13//3 15//3 19//3 17//3
f 15//2 16//2 20//2 19//2
f 17//3 19//3 23//3 21//3
f 19//2 20//2 24//2 23//2
f 30//4 32//4 28//4 26//4
f 21//3 23//3 27//3 25//3
f 23//2 24//2 28//2 27//2
f 34//4 36//4 32//4 30//4
f 25//3 27//3 31//3 29//3
f 27//2 28//2 32//2 31//2
f 38//4 40//4 36//4 34//4
f 29//3 31//3 35//3 33//3
f 31//2 32//2 36//2 35//2
f 4//4 9//4 40//4 38//4
f 33//3 35//3 39//3 37//3
f 35//2 36//2 40//2 39//2
