# Blender v2.79 (sub 0) OBJ File: 'tower map tutorial.blend'
# www.blender.org
o Cube.005_Cube.007
v 1.575180 0.000000 3.295877
v 1.575180 25.197275 3.295877
v 1.907633 0.000000 3.110251
v 1.907633 25.197275 3.110251
v 1.269544 0.000000 2.672714
v 1.269544 25.197275 2.672714
v 1.537490 0.000000 2.523105
v 1.537490 25.197275 2.523105
v 1.575180 0.200000 3.295877
v 1.907633 0.200000 3.110251
v 1.269544 0.200000 2.672714
v 1.537490 0.200000 2.523105
v 1.575180 1.000000 3.295877
v 1.269544 1.000000 2.672714
v 1.907633 1.000000 3.110251
v 1.537490 1.000000 2.523105
v 1.575180 1.199999 3.295877
v 1.269544 1.199999 2.672714
v 1.907633 1.200000 3.110251
v 1.537490 1.200000 2.523105
v 1.575180 1.999995 3.295877
v 1.269544 1.999995 2.672714
v 1.907633 1.999996 3.110251
v 1.537490 1.999996 2.523105
v 1.575180 2.200002 3.295877
v 1.269544 2.200002 2.672714
v 1.907633 2.200003 3.110251
v 1.537490 2.200003 2.523105
v 1.575180 2.999999 3.295877
v 1.269544 2.999999 2.672714
v 1.907633 2.999999 3.110251
v 1.537490 2.999999 2.523105
v 1.575180 3.199996 3.295877
v 1.269544 3.199996 2.672714
v 1.907633 3.199996 3.110251
v 1.537490 3.199996 2.523105
v 1.575180 4.000004 3.295877
v 1.269544 4.000004 2.672714
v 1.907633 4.000004 3.110251
v 1.537490 4.000004 2.523105
vn -0.8978 0.0000 0.4403
vn -0.4875 0.0000 -0.8731
vn 0.0000 -1.0000 0.0000
vn 0.8459 0.0000 -0.5333
s off
f 9//1 11//1 5//1 1//1
f 40//2 38//2 6//2 8//2
f 1//3 5//3 7//3 3//3
f 39//4 40//4 8//4 4//4
f 4//3 2//3 6//3 8//3
f 7//2 5//2 11//2 12//2
f 13//1 14//1 11//1 9//1
f 17//1 18//1 14//1 13//1
f 10//4 12//4 16//4 15//4
f 12//2 11//2 14//2 16//2
f 21//1 22//1 18//1 17//1
f 15//4 16//4 20//4 19//4
f 16//2 14//2 18//2 20//2
f 25//1 26//1 22//1 21//1
f 19//4 20//4 24//4 23//4
f 20//2 18//2 22//2 24//2
f 29//1 30//1 26//1 25//1
f 23//4 24//4 28//4 27//4
f 24//2 22//2 26//2 28//2
f 33//1 34//1 30//1 29//1
f 27//4 28//4 32//4 31//4
f 28//2 26//2 30//2 32//2
f 37//1 38//1 34//1 33//1
f 31//4 32//4 36//4 35//4
f 32//2 30//2 34//2 36//2
f 2//1 6//1 38//1 37//1
f 35//4 36//4 40//4 39//4
f 36//2 34//2 38//2 40//2
