# Blender v2.79 (sub 0) OBJ File: 'tower map tutorial.blend'
# www.blender.org
o Cube.008_Cube.010
v 0.462769 1.000000 -3.462826
v 0.837177 1.000000 -3.393542
v 1.202099 1.000000 -3.284853
v 1.553402 1.000000 -3.137991
v 1.887103 1.000000 -2.954620
v 2.199423 1.000000 -2.736818
v 2.486823 1.000000 -2.487052
v 2.746046 1.000000 -2.208152
v 2.974154 1.000000 -1.903279
v 3.168565 1.000000 -1.575886
v 3.327078 1.000000 -1.229677
v 3.447890 1.000000 -0.868587
v 3.529636 1.000000 -0.496701
v 3.571390 1.000000 -0.118232
v 3.572678 1.000000 0.262530
v 3.533487 1.000000 0.641272
v 0.462769 1.200000 -3.462826
v 0.837177 1.200000 -3.393542
v 1.202099 1.200000 -3.284853
v 1.553402 1.200000 -3.137991
v 1.887103 1.200000 -2.954620
v 2.199423 1.200000 -2.736818
v 2.486823 1.200000 -2.487052
v 2.746046 1.200000 -2.208152
v 2.974154 1.200000 -1.903279
v 3.168565 1.200000 -1.575886
v 3.327078 1.200000 -1.229677
v 3.447890 1.200000 -0.868587
v 3.529636 1.200000 -0.496701
v 3.571390 1.200000 -0.118232
v 3.572678 1.200000 0.262530
v 3.533487 1.200000 0.641272
v 1.251991 1.000000 -2.512773
v 1.520943 1.000000 -2.364982
v 1.772663 1.000000 -2.189441
v 2.004297 1.000000 -1.988138
v 2.213223 1.000000 -1.763353
v 2.397071 1.000000 -1.517636
v 2.553760 1.000000 -1.253768
v 2.681516 1.000000 -0.974734
v 1.251991 1.200000 -2.512773
v 1.520943 1.200000 -2.364982
v 1.772663 1.200000 -2.189441
v 2.004297 1.200000 -1.988138
v 2.213223 1.200000 -1.763353
v 2.397071 1.200000 -1.517636
v 2.553760 1.200000 -1.253768
v 2.681516 1.200000 -0.974734
v 2.778886 1.200000 -0.683707
v 2.778886 1.000000 -0.683707
v 2.844771 1.200000 -0.383980
v 2.844771 1.000000 -0.383980
v 2.878423 1.200000 -0.078946
v 2.878423 1.000000 -0.078946
v 2.879462 1.200000 0.227935
v 2.879462 1.000000 0.227935
v 2.847875 1.200000 0.533189
v 2.847875 1.000000 0.533189
v 0.372977 1.200000 -2.774580
v 0.372977 1.000000 -2.774580
v 0.674737 1.200000 -2.718739
v 0.674737 1.000000 -2.718739
v 0.968853 1.200000 -2.631139
v 0.968853 1.000000 -2.631139
vn -0.1557 0.0000 0.9878
vn 0.0000 -1.0000 -0.0000
vn 0.0000 1.0000 0.0000
vn -0.2664 0.0000 -0.9639
vn -0.9008 0.0000 -0.4343
vn -0.9916 0.0000 -0.1294
vn -0.9483 0.0000 0.3173
vn -0.9092 0.0000 0.4163
vn -0.8598 0.0000 0.5106
vn -0.8007 0.0000 0.5991
vn -0.7325 0.0000 0.6808
vn -0.6560 0.0000 0.7548
vn -0.5720 0.0000 0.8202
vn -0.4816 0.0000 0.8764
vn -0.9947 0.0000 -0.1029
vn -1.0000 0.0000 0.0034
vn -0.9940 0.0000 0.1097
vn -0.9767 0.0000 0.2147
vn -0.3857 0.0000 0.9226
vn -0.2854 0.0000 0.9584
vn -0.1820 0.0000 0.9833
s off
f 16//1 32//1 57//1 58//1
f 13//2 14//2 54//2 52//2
f 32//3 31//3 55//3 57//3
f 28//4 12//4 50//4 49//4
f 6//2 35//2 34//2 5//2
f 4//5 33//5 41//5 20//5
f 24//3 45//3 46//3 25//3
f 7//2 36//2 35//2 6//2
f 25//3 46//3 47//3 26//3
f 8//2 37//2 36//2 7//2
f 26//3 47//3 48//3 27//3
f 9//2 38//2 37//2 8//2
f 10//2 39//2 38//2 9//2
f 11//2 40//2 39//2 10//2
f 17//6 1//6 60//6 59//6
f 19//3 18//3 61//3 63//3
f 2//2 3//2 64//2 62//2
f 40//7 50//7 49//7 48//7
f 39//8 40//8 48//8 47//8
f 38//9 39//9 47//9 46//9
f 37//10 38//10 46//10 45//10
f 36//11 37//11 45//11 44//11
f 35//12 36//12 44//12 43//12
f 34//13 35//13 43//13 42//13
f 33//14 34//14 42//14 41//14
f 23//3 44//3 45//3 24//3
f 5//2 34//2 33//2 4//2
f 12//2 50//2 40//2 11//2
f 22//3 43//3 44//3 23//3
f 21//3 42//3 43//3 22//3
f 20//3 41//3 42//3 21//3
f 27//3 48//3 49//3 28//3
f 56//15 58//15 57//15 55//15
f 54//16 56//16 55//16 53//16
f 52//17 54//17 53//17 51//17
f 50//18 52//18 51//18 49//18
f 31//3 30//3 53//3 55//3
f 12//2 13//2 52//2 50//2
f 15//2 16//2 58//2 56//2
f 30//3 29//3 51//3 53//3
f 14//2 15//2 56//2 54//2
f 29//3 28//3 49//3 51//3
f 64//19 33//19 41//19 63//19
f 62//20 64//20 63//20 61//20
f 60//21 62//21 61//21 59//21
f 1//2 2//2 62//2 60//2
f 18//3 17//3 59//3 61//3
f 3//2 4//2 33//2 64//2
f 20//3 19//3 63//3 41//3
