# Blender v2.79 (sub 0) OBJ File: 'Tower Map Level 1.blend'
# www.blender.org
o Platform_Cube.013
v 1.038446 0.609109 -2.641961
v 1.290320 0.609109 -2.529319
v 1.530146 0.609109 -2.392893
v 1.755686 0.609109 -2.233958
v 1.964833 0.609109 -2.053997
v 2.155635 0.609109 -1.854691
v 2.326311 0.609109 -1.637899
v 2.475267 0.609109 -1.405648
v 2.601111 0.609109 -1.160103
v 2.702670 0.609109 -0.903561
v 2.778995 0.609109 -0.638413
v 2.829372 0.609109 -0.367137
v 2.853333 0.609109 -0.092265
v 2.850653 0.609109 0.183636
v 2.821357 0.609109 0.457990
v 2.765719 0.609109 0.728236
v 2.684258 0.609109 0.991850
v 2.577735 0.609109 1.246372
v 2.447145 0.609109 1.489424
v 2.293706 0.609109 1.718739
v 1.038446 0.809108 -2.641961
v 1.290320 0.809108 -2.529319
v 1.530146 0.809108 -2.392893
v 1.755686 0.809108 -2.233958
v 1.964833 0.809108 -2.053997
v 2.155635 0.809108 -1.854691
v 2.326311 0.809108 -1.637899
v 2.475267 0.809108 -1.405648
v 2.601111 0.809108 -1.160103
v 2.702670 0.809108 -0.903561
v 2.778995 0.809108 -0.638413
v 2.829372 0.809108 -0.367137
v 2.853333 0.809108 -0.092265
v 2.850653 0.809108 0.183636
v 2.821357 0.809108 0.457990
v 2.765719 0.809108 0.728236
v 2.684258 0.809108 0.991850
v 2.577735 0.809108 1.246372
v 2.447145 0.809108 1.489424
v 2.293706 0.809108 1.718739
v 0.873428 0.609109 -2.219274
v 1.085277 0.609109 -2.124531
v 1.286993 0.609109 -2.009785
v 1.476692 0.609109 -1.876106
v 1.652604 0.609109 -1.724742
v 1.813087 0.609109 -1.557107
v 1.956641 0.609109 -1.374765
v 2.081926 0.609109 -1.179420
v 2.187773 0.609109 -0.972896
v 2.273193 0.609109 -0.757120
v 2.337389 0.609109 -0.534106
v 2.379761 0.609109 -0.305938
v 2.399914 0.609109 -0.074745
v 2.397660 0.609109 0.157313
v 2.373019 0.609109 0.388069
v 2.326223 0.609109 0.615371
v 2.257707 0.609109 0.837095
v 2.168111 0.609109 1.051171
v 2.058272 0.609109 1.255600
v 1.929216 0.609109 1.448474
v 0.873428 0.809108 -2.219274
v 1.085277 0.809108 -2.124531
v 1.286993 0.809108 -2.009785
v 1.476692 0.809108 -1.876106
v 1.652604 0.809108 -1.724742
v 1.813087 0.809108 -1.557107
v 1.956641 0.809108 -1.374765
v 2.081926 0.809108 -1.179420
v 2.187773 0.809108 -0.972896
v 2.273193 0.809108 -0.757120
v 2.337389 0.809108 -0.534106
v 2.379761 0.809108 -0.305938
v 2.399914 0.809108 -0.074745
v 2.397660 0.809108 0.157313
v 2.373019 0.809108 0.388069
v 2.326223 0.809108 0.615371
v 2.257707 0.809108 0.837095
v 2.168111 0.809108 1.051171
v 2.058272 0.809108 1.255600
v 1.929216 0.809108 1.448474
vn -0.9315 0.0000 -0.3637
vn 0.0000 1.0000 0.0000
vn 0.0000 -1.0000 -0.0000
vn -0.4083 0.0000 0.9129
vn -0.4944 0.0000 0.8692
vn -0.5760 0.0000 0.8174
vn -0.6522 0.0000 0.7580
vn -0.7223 0.0000 0.6915
vn -0.7857 0.0000 0.6186
vn -0.8418 0.0000 0.5399
vn -0.8899 0.0000 0.4561
vn -0.9298 0.0000 0.3681
vn -0.9610 0.0000 0.2766
vn -0.9832 0.0000 0.1826
vn -0.9962 0.0000 0.0868
vn -1.0000 0.0000 -0.0097
vn -0.9943 0.0000 -0.1062
vn -0.9795 0.0000 -0.2016
vn -0.9554 0.0000 -0.2952
vn -0.9225 0.0000 -0.3861
vn -0.8809 0.0000 -0.4733
vn -0.8311 0.0000 -0.5561
vn -0.5956 0.0000 0.8033
s off
f 1//1 41//1 61//1 21//1
f 23//2 63//2 64//2 24//2
f 6//3 46//3 45//3 5//3
f 36//2 76//2 77//2 37//2
f 19//3 59//3 58//3 18//3
f 22//2 62//2 63//2 23//2
f 5//3 45//3 44//3 4//3
f 35//2 75//2 76//2 36//2
f 18//3 58//3 57//3 17//3
f 21//2 61//2 62//2 22//2
f 4//3 44//3 43//3 3//3
f 34//2 74//2 75//2 35//2
f 17//3 57//3 56//3 16//3
f 3//3 43//3 42//3 2//3
f 33//2 73//2 74//2 34//2
f 16//3 56//3 55//3 15//3
f 2//3 42//3 41//3 1//3
f 32//2 72//2 73//2 33//2
f 15//3 55//3 54//3 14//3
f 41//4 42//4 62//4 61//4
f 42//5 43//5 63//5 62//5
f 43//6 44//6 64//6 63//6
f 44//7 45//7 65//7 64//7
f 45//8 46//8 66//8 65//8
f 46//9 47//9 67//9 66//9
f 47//10 48//10 68//10 67//10
f 48//11 49//11 69//11 68//11
f 49//12 50//12 70//12 69//12
f 50//13 51//13 71//13 70//13
f 51//14 52//14 72//14 71//14
f 52//15 53//15 73//15 72//15
f 53//16 54//16 74//16 73//16
f 54//17 55//17 75//17 74//17
f 55//18 56//18 76//18 75//18
f 56//19 57//19 77//19 76//19
f 57//20 58//20 78//20 77//20
f 58//21 59//21 79//21 78//21
f 59//22 60//22 80//22 79//22
f 20//3 60//3 59//3 19//3
f 37//2 77//2 78//2 38//2
f 7//3 47//3 46//3 6//3
f 24//2 64//2 65//2 25//2
f 38//2 78//2 79//2 39//2
f 8//3 48//3 47//3 7//3
f 25//2 65//2 66//2 26//2
f 39//2 79//2 80//2 40//2
f 9//3 49//3 48//3 8//3
f 26//2 66//2 67//2 27//2
f 10//3 50//3 49//3 9//3
f 27//2 67//2 68//2 28//2
f 11//3 51//3 50//3 10//3
f 28//2 68//2 69//2 29//2
f 12//3 52//3 51//3 11//3
f 40//23 80//23 60//23 20//23
f 29//2 69//2 70//2 30//2
f 13//3 53//3 52//3 12//3
f 30//2 70//2 71//2 31//2
f 14//3 54//3 53//3 13//3
f 31//2 71//2 72//2 32//2
