# Blender v2.79 (sub 0) OBJ File: 'Tower Map Level 1.blend'
# www.blender.org
o Platform.011_Cube.014
v -2.373198 3.009115 -1.569972
v -2.208860 3.009115 -1.791605
v -2.023898 3.009115 -1.996343
v -1.820039 3.009115 -2.182274
v -1.599187 3.009115 -2.347661
v -2.373198 3.209106 -1.569972
v -2.208860 3.209106 -1.791605
v -2.023898 3.209106 -1.996343
v -1.820039 3.209106 -2.182274
v -1.599187 3.209106 -2.347661
v -1.996077 3.009115 -1.317632
v -1.857853 3.009115 -1.504046
v -1.702283 3.009115 -1.676250
v -1.530819 3.009115 -1.832634
v -1.345063 3.009115 -1.971740
v -1.996077 3.209106 -1.317632
v -1.857853 3.209106 -1.504046
v -1.702283 3.209106 -1.676250
v -1.530819 3.209106 -1.832634
v -1.345063 3.209106 -1.971740
vn 0.0000 -1.0000 -0.0000
vn 0.0000 1.0000 0.0000
vn 0.8285 0.0000 -0.5600
vn 0.5994 0.0000 0.8004
vn 0.6739 0.0000 0.7388
vn 0.7420 0.0000 0.6704
vn 0.8033 0.0000 0.5956
vn -0.5561 0.0000 0.8311
s off
f 5//1 15//1 14//1 4//1
f 8//2 18//2 19//2 9//2
f 2//1 12//1 11//1 1//1
f 10//3 20//3 15//3 5//3
f 14//4 15//4 20//4 19//4
f 13//5 14//5 19//5 18//5
f 12//6 13//6 18//6 17//6
f 11//7 12//7 17//7 16//7
f 7//2 17//2 18//2 8//2
f 4//1 14//1 13//1 3//1
f 6//2 16//2 17//2 7//2
f 3//1 13//1 12//1 2//1
f 9//2 19//2 20//2 10//2
f 1//8 11//8 16//8 6//8
