# Blender v2.79 (sub 0) OBJ File: 'Tower Map Level 1.blend'
# www.blender.org
o Platform.013_Cube.016
v 0.723356 0.009110 2.780303
v 0.986582 0.009110 2.697593
v 1.240595 0.009110 2.589865
v 1.483026 0.009110 2.458124
v 1.711610 0.009110 2.303600
v 1.924214 0.009110 2.127735
v 2.118851 0.009110 1.932173
v 2.293706 0.009110 1.718739
v 2.447145 0.009110 1.489424
v 2.577735 0.009110 1.246372
v 2.684258 0.009110 0.991850
v 2.765719 0.009110 0.728236
v 2.821357 0.009110 0.457990
v 2.821357 0.209109 0.457990
v 2.765719 0.209109 0.728236
v 2.684258 0.209109 0.991850
v 2.577735 0.209109 1.246372
v 2.447145 0.209109 1.489424
v 2.293706 0.209109 1.718739
v 2.118851 0.209109 1.932173
v 1.924214 0.209109 2.127735
v 1.711610 0.209109 2.303600
v 1.483026 0.209109 2.458124
v 1.240595 0.209109 2.589865
v 0.986582 0.209109 2.697593
v 0.723356 0.209109 2.780303
v 0.608409 0.009110 2.341346
v 0.829805 0.009110 2.271780
v 1.043454 0.009110 2.181171
v 1.247361 0.009110 2.070364
v 1.439621 0.009110 1.940395
v 1.618440 0.009110 1.792478
v 1.782148 0.009110 1.627992
v 1.929216 0.009110 1.448474
v 2.058272 0.009110 1.255600
v 2.168111 0.009110 1.051171
v 2.257707 0.009110 0.837095
v 2.326223 0.009110 0.615371
v 2.373019 0.009110 0.388069
v 2.373019 0.209109 0.388069
v 2.326223 0.209109 0.615371
v 2.257707 0.209109 0.837095
v 2.168111 0.209109 1.051171
v 2.058272 0.209109 1.255600
v 1.929216 0.209109 1.448474
v 1.782148 0.209109 1.627992
v 1.618440 0.209109 1.792478
v 1.439621 0.209109 1.940395
v 1.247361 0.209109 2.070364
v 1.043454 0.209109 2.181171
v 0.829805 0.209109 2.271780
v 0.608409 0.209109 2.341346
vn 0.0000 1.0000 0.0000
vn 0.0000 -1.0000 0.0000
vn -0.2998 0.0000 -0.9540
vn -0.3904 0.0000 -0.9206
vn -0.4775 0.0000 -0.8786
vn -0.5600 0.0000 -0.8285
vn -0.6374 0.0000 -0.7705
vn -0.7088 0.0000 -0.7054
vn -0.7736 0.0000 -0.6337
vn -0.8311 0.0000 -0.5561
vn -0.8809 0.0000 -0.4733
vn -0.9225 0.0000 -0.3861
vn -0.9554 0.0000 -0.2952
vn -0.9795 0.0000 -0.2016
vn 0.1541 0.0000 -0.9881
s off
f 23//1 49//1 50//1 24//1
f 5//2 31//2 32//2 6//2
f 24//1 50//1 51//1 25//1
f 4//2 30//2 31//2 5//2
f 25//1 51//1 52//1 26//1
f 3//2 29//2 30//2 4//2
f 2//2 28//2 29//2 3//2
f 1//2 27//2 28//2 2//2
f 28//3 27//3 52//3 51//3
f 29//4 28//4 51//4 50//4
f 30//5 29//5 50//5 49//5
f 31//6 30//6 49//6 48//6
f 32//7 31//7 48//7 47//7
f 33//8 32//8 47//8 46//8
f 34//9 33//9 46//9 45//9
f 35//10 34//10 45//10 44//10
f 36//11 35//11 44//11 43//11
f 37//12 36//12 43//12 42//12
f 38//13 37//13 42//13 41//13
f 39//14 38//14 41//14 40//14
f 6//2 32//2 33//2 7//2
f 22//1 48//1 49//1 23//1
f 7//2 33//2 34//2 8//2
f 21//1 47//1 48//1 22//1
f 8//2 34//2 35//2 9//2
f 20//1 46//1 47//1 21//1
f 9//2 35//2 36//2 10//2
f 19//1 45//1 46//1 20//1
f 10//2 36//2 37//2 11//2
f 18//1 44//1 45//1 19//1
f 11//2 37//2 38//2 12//2
f 17//1 43//1 44//1 18//1
f 12//2 38//2 39//2 13//2
f 16//1 42//1 43//1 17//1
f 15//1 41//1 42//1 16//1
f 14//1 40//1 41//1 15//1
f 13//15 39//15 40//15 14//15
