# Blender v2.79 (sub 0) OBJ File: 'Tower Map Level 1.blend'
# www.blender.org
o Platform.015_Cube.018
v -2.515378 0.009110 -1.333514
v -2.634073 0.009110 -1.084435
v -2.728175 0.009110 -0.825064
v -2.796804 0.009110 -0.557821
v -2.839321 0.009110 -0.285203
v -2.855327 0.009110 -0.009753
v -2.844674 0.009110 0.265955
v -2.807462 0.009110 0.539348
v -2.744036 0.009110 0.807873
v -2.744036 0.209109 0.807873
v -2.807462 0.209109 0.539348
v -2.844674 0.209109 0.265955
v -2.855327 0.209109 -0.009753
v -2.839321 0.209109 -0.285203
v -2.796804 0.209109 -0.557821
v -2.728175 0.209109 -0.825064
v -2.634073 0.209109 -1.084435
v -2.515378 0.209109 -1.333514
v -2.388129 0.009110 -0.237024
v -2.401592 0.009110 -0.005346
v -2.392631 0.009110 0.226550
v -2.361332 0.009110 0.456498
v -2.307985 0.009110 0.682353
v -2.307985 0.209109 0.682353
v -2.361332 0.209109 0.456498
v -2.392631 0.209109 0.226550
v -2.401592 0.209109 -0.005346
v -2.388129 0.209109 -0.237024
v -2.352368 0.209109 -0.466322
v -2.115663 0.009110 -1.118749
v -2.215497 0.009110 -0.909252
v -2.294645 0.009110 -0.691097
v -2.352368 0.009110 -0.466321
v -2.294645 0.209109 -0.691097
v -2.215497 0.209109 -0.909252
v -2.115663 0.209109 -1.118749
vn 0.4733 0.0000 -0.8809
vn 0.0000 1.0000 -0.0000
vn 0.0000 -1.0000 0.0000
vn -0.2016 0.0000 0.9795
vn 0.9881 0.0000 0.1541
vn 0.9983 0.0000 0.0580
vn 0.9993 0.0000 -0.0386
vn 0.9909 0.0000 -0.1349
vn 0.9732 0.0000 -0.2299
vn 0.9027 0.0000 0.4302
vn 0.9400 0.0000 0.3411
vn 0.9686 0.0000 0.2487
s off
f 18//1 36//1 30//1 1//1
f 10//2 24//2 25//2 11//2
f 11//2 25//2 26//2 12//2
f 12//2 26//2 27//2 13//2
f 8//3 22//3 23//3 9//3
f 13//2 27//2 28//2 14//2
f 4//4 33//4 29//4 15//4
f 3//3 32//3 33//3 4//3
f 15//2 29//2 34//2 16//2
f 2//3 31//3 32//3 3//3
f 19//5 33//5 29//5 28//5
f 20//6 19//6 28//6 27//6
f 21//7 20//7 27//7 26//7
f 22//8 21//8 26//8 25//8
f 23//9 22//9 25//9 24//9
f 4//3 33//3 19//3 5//3
f 5//3 19//3 20//3 6//3
f 6//3 20//3 21//3 7//3
f 14//2 28//2 29//2 15//2
f 7//3 21//3 22//3 8//3
f 31//10 30//10 36//10 35//10
f 32//11 31//11 35//11 34//11
f 33//12 32//12 34//12 29//12
f 17//2 35//2 36//2 18//2
f 1//3 30//3 31//3 2//3
f 16//2 34//2 35//2 17//2
