# Blender v2.79 (sub 0) OBJ File: 'Tower Map Level 1.blend'
# www.blender.org
o Platform.016_Cube.019
v -2.062642 0.009110 1.992613
v -1.862433 0.009110 2.182469
v -1.862433 0.209109 2.182469
v -2.062642 0.209109 1.992613
v -1.862432 3.209106 2.182469
v -2.062641 3.209106 1.992615
v -1.734871 0.009110 1.678827
v -1.566476 0.009110 1.838513
v -1.566476 0.209109 1.838513
v -1.734871 0.209109 1.678827
v -1.566476 0.609109 1.838513
v -1.734870 0.609109 1.678828
v -1.566476 1.209112 1.838513
v -1.566476 1.009109 1.838513
v -1.734870 1.209112 1.678828
v -1.734870 1.009109 1.678828
v -1.566476 2.009109 1.838514
v -1.734870 2.009109 1.678828
v -1.566476 2.209113 1.838514
v -1.734870 2.209113 1.678828
v -1.566476 3.009115 1.838514
v -1.734870 3.009115 1.678828
v -1.566476 3.209106 1.838514
v -1.734870 3.209106 1.678828
v -1.566476 0.809108 1.838513
v -1.734870 0.809108 1.678828
vn 0.0000 1.0000 0.0000
vn 0.0000 -1.0000 0.0000
vn 0.6881 0.0000 -0.7256
s off
f 3//1 9//1 10//1 4//1
f 1//2 7//2 8//2 2//2
f 8//3 7//3 10//3 9//3
f 5//1 23//1 24//1 6//1
f 25//3 26//3 16//3 14//3
f 14//3 16//3 15//3 13//3
f 13//3 15//3 18//3 17//3
f 17//3 18//3 20//3 19//3
f 19//3 20//3 22//3 21//3
f 21//3 22//3 24//3 23//3
f 9//3 10//3 12//3 11//3
f 11//3 12//3 26//3 25//3
