# Blender v2.79 (sub 0) OBJ File: 'Tower Map Level 1.blend'
# www.blender.org
o Platform.017_Cube.020
v 0.453377 0.009110 2.837221
v -0.371703 0.009110 2.849147
v -0.096721 0.009110 2.871805
v 0.179164 0.009110 2.867817
v 0.453377 0.209109 2.837221
v 0.179164 0.209109 2.867817
v -0.096721 0.209109 2.871805
v -0.371703 0.209109 2.849147
v 0.453377 1.009109 2.837221
v -0.096721 1.009109 2.871805
v -0.371703 1.009109 2.849147
v 0.453377 0.609109 2.837221
v 0.453377 1.209112 2.837221
v -0.096721 1.209112 2.871805
v -0.371703 1.209112 2.849147
v 0.453377 2.009109 2.837221
v -0.096720 2.009109 2.871805
v -0.371702 2.009109 2.849147
v 0.453377 2.209113 2.837221
v -0.096720 2.209113 2.871805
v -0.371702 2.209113 2.849147
v 0.453377 3.009115 2.837221
v -0.096720 3.009115 2.871805
v -0.371702 3.009115 2.849147
v 0.453377 3.209106 2.837221
v -0.096720 3.209106 2.871805
v -0.371702 3.209106 2.849147
v 0.453377 4.009104 2.837221
v -0.096720 4.009104 2.871805
v -0.371702 4.009104 2.849147
v 0.381331 0.009110 2.389219
v -0.312637 0.009110 2.399251
v -0.081352 0.009110 2.418307
v 0.150694 0.009110 2.414954
v 0.150694 0.209109 2.414954
v -0.081352 0.209109 2.418307
v -0.096721 0.609109 2.871805
v -0.371703 0.609109 2.849147
v 0.453377 0.809108 2.837221
v -0.096721 0.809108 2.871805
v -0.371703 0.809108 2.849147
v 0.453377 4.209125 2.837221
v 0.179164 4.209125 2.867817
v -0.096720 4.209125 2.871805
v -0.371702 4.209125 2.849147
v 0.381331 0.209109 2.389219
v 0.381331 1.009109 2.389219
v 0.150694 1.009109 2.414954
v -0.081351 1.009109 2.418308
v 0.381331 0.609109 2.389219
v 0.381331 1.209112 2.389219
v 0.150694 1.209112 2.414954
v -0.081351 1.209112 2.418308
v 0.381331 2.009109 2.389219
v 0.150694 2.009109 2.414954
v 0.381331 2.209113 2.389219
v 0.150694 2.209113 2.414954
v 0.381331 3.009115 2.389219
v 0.150694 3.009115 2.414954
v -0.081351 3.009115 2.418308
v 0.381331 3.209106 2.389219
v 0.150694 3.209106 2.414954
v -0.081351 3.209106 2.418308
v 0.381331 4.009104 2.389219
v 0.150694 4.009104 2.414954
v 0.150694 0.609109 2.414954
v 0.381331 0.809108 2.389219
v 0.150694 0.809108 2.414954
v 0.381331 4.209125 2.389219
v 0.150694 4.209125 2.414954
v -0.081351 4.209125 2.418308
v -0.312637 0.209109 2.399251
v -0.312637 1.009109 2.399251
v -0.312637 1.209112 2.399251
v -0.081351 2.009109 2.418308
v -0.312636 2.009109 2.399251
v -0.081351 2.209113 2.418308
v -0.312636 2.209113 2.399251
v -0.312636 3.009115 2.399251
v -0.312636 3.209106 2.399251
v -0.081351 4.009104 2.418308
v -0.312636 4.009104 2.399251
v -0.081351 0.609109 2.418308
v -0.312637 0.609109 2.399251
v -0.081351 0.809109 2.418308
v -0.312637 0.809109 2.399251
v -0.312636 4.209125 2.399251
vn 0.0000 -1.0000 0.0000
vn 0.9873 0.0000 -0.1588
vn -0.9915 0.0000 -0.1302
vn 0.0000 1.0000 -0.0000
vn -0.9994 0.0000 -0.0339
vn 0.9994 0.0000 0.0339
vn 0.0821 0.0000 -0.9966
vn -0.0145 0.0000 -0.9999
vn -0.1109 0.0000 -0.9938
s off
f 4//1 34//1 31//1 1//1
f 1//2 31//2 46//2 5//2
f 27//3 80//3 79//3 24//3
f 43//4 70//4 71//4 44//4
f 37//5 83//5 36//5 7//5
f 21//3 78//3 76//3 18//3
f 16//2 54//2 56//2 19//2
f 14//5 53//5 49//5 10//5
f 37//6 83//6 85//6 40//6
f 13//2 51//2 54//2 16//2
f 5//2 46//2 50//2 12//2
f 29//5 81//5 63//5 26//5
f 9//2 47//2 51//2 13//2
f 24//3 79//3 78//3 21//3
f 10//5 49//5 85//5 40//5
f 44//4 71//4 87//4 45//4
f 6//1 35//1 46//1 5//1
f 26//5 63//5 60//5 23//5
f 8//1 72//1 36//1 7//1
f 23//5 60//5 77//5 20//5
f 25//2 61//2 64//2 28//2
f 33//7 32//7 72//7 36//7
f 34//8 33//8 36//8 35//8
f 31//9 34//9 35//9 46//9
f 2//1 32//1 33//1 3//1
f 3//1 33//1 34//1 4//1
f 6//4 35//4 36//4 7//4
f 44//5 71//5 81//5 29//5
f 17//6 75//6 77//6 20//6
f 39//2 67//2 47//2 9//2
f 12//2 50//2 67//2 39//2
f 11//3 73//3 86//3 41//3
f 22//2 58//2 61//2 25//2
f 68//8 85//8 49//8 48//8
f 67//9 68//9 48//9 47//9
f 48//8 49//8 53//8 52//8
f 47//9 48//9 52//9 51//9
f 52//8 53//8 75//8 55//8
f 51//9 52//9 55//9 54//9
f 55//8 75//8 77//8 57//8
f 54//9 55//9 57//9 56//9
f 57//8 77//8 60//8 59//8
f 56//9 57//9 59//9 58//9
f 59//8 60//8 63//8 62//8
f 58//9 59//9 62//9 61//9
f 62//8 63//8 81//8 65//8
f 61//9 62//9 65//9 64//9
f 46//9 35//9 66//9 50//9
f 35//8 36//8 83//8 66//8
f 50//9 66//9 68//9 67//9
f 66//8 83//8 85//8 68//8
f 65//8 81//8 71//8 70//8
f 64//9 65//9 70//9 69//9
f 28//2 64//2 69//2 42//2
f 17//5 75//5 53//5 14//5
f 42//4 69//4 70//4 43//4
f 19//2 56//2 58//2 22//2
f 85//7 86//7 73//7 49//7
f 49//7 73//7 74//7 53//7
f 53//7 74//7 76//7 75//7
f 75//7 76//7 78//7 77//7
f 77//7 78//7 79//7 60//7
f 60//7 79//7 80//7 63//7
f 63//7 80//7 82//7 81//7
f 36//7 72//7 84//7 83//7
f 83//7 84//7 86//7 85//7
f 81//7 82//7 87//7 71//7
f 41//3 86//3 84//3 38//3
f 30//3 82//3 80//3 27//3
f 38//3 84//3 72//3 8//3
f 18//3 76//3 74//3 15//3
f 45//3 87//3 82//3 30//3
f 15//3 74//3 73//3 11//3
