# Blender v2.79 (sub 0) OBJ File: 'Tower Map Level 1.blend'
# www.blender.org
o Platform.018_Cube.021
v -2.744036 0.009110 0.807873
v -2.654990 0.009110 1.069024
v -2.541156 0.009110 1.320361
v -2.403595 0.009110 1.559537
v -2.243593 0.009110 1.784321
v -2.062642 0.009110 1.992613
v -2.062642 0.209109 1.992613
v -2.243593 0.209109 1.784321
v -2.403595 0.209109 1.559537
v -2.541156 0.209109 1.320361
v -2.654990 0.209109 1.069024
v -2.744036 0.209109 0.807873
v -2.654990 1.009109 1.069025
v -2.744036 1.009109 0.807874
v -2.654990 1.209112 1.069025
v -2.744036 1.209112 0.807875
v -2.654989 2.009109 1.069026
v -2.744035 2.009109 0.807876
v -2.654989 2.209113 1.069026
v -2.744035 2.209113 0.807876
v -2.654989 3.009115 1.069026
v -2.744035 3.009115 0.807876
v -2.062641 3.209106 1.992615
v -2.654989 3.209106 1.069026
v -2.744035 3.209106 0.807876
v -2.062641 4.009104 1.992615
v -2.654989 4.009104 1.069026
v -2.744035 4.009104 0.807876
v -2.307985 0.009110 0.682353
v -2.233090 0.009110 0.902004
v -2.137344 0.009110 1.113401
v -2.021643 0.009110 1.314571
v -1.887066 0.009110 1.503634
v -1.734871 0.009110 1.678827
v -1.734871 0.209109 1.678827
v -2.307985 0.209109 0.682353
v -2.654990 0.609109 1.069024
v -2.744036 0.609109 0.807874
v -2.654990 0.809108 1.069024
v -2.744036 0.809108 0.807874
v -2.062640 4.209125 1.992615
v -2.654989 4.209125 1.069026
v -2.744035 4.209125 0.807876
v -2.062640 5.009133 1.992615
v -2.654989 5.009133 1.069026
v -2.744035 5.009133 0.807877
v -2.062640 5.209121 1.992615
v -2.243590 5.209121 1.784323
v -2.403593 5.209121 1.559540
v -2.541154 5.209121 1.320364
v -2.654989 5.209121 1.069027
v -2.744035 5.209121 0.807877
v -1.734870 0.609109 1.678828
v -1.887066 0.609109 1.503634
v -1.887066 0.209109 1.503634
v -2.021643 0.609109 1.314571
v -2.021643 0.209109 1.314571
v -2.137344 0.609109 1.113401
v -2.137344 0.209109 1.113401
v -2.233090 0.209109 0.902004
v -1.734870 1.209112 1.678828
v -1.734870 1.009109 1.678828
v -1.887066 1.209112 1.503635
v -1.887066 1.009109 1.503635
v -2.021643 1.209112 1.314571
v -2.021643 1.009109 1.314571
v -2.137344 1.209112 1.113402
v -2.137344 1.009109 1.113402
v -2.233089 1.209112 0.902005
v -2.233089 1.009109 0.902005
v -1.734870 2.009109 1.678828
v -1.887065 2.009109 1.503636
v -2.021642 2.009109 1.314572
v -2.137343 2.009109 1.113403
v -1.734870 2.209113 1.678828
v -1.887065 2.209113 1.503636
v -2.021642 2.209113 1.314572
v -2.137343 2.209113 1.113403
v -2.233089 2.209113 0.902005
v -1.734870 3.009115 1.678828
v -1.887065 3.009115 1.503636
v -2.021642 3.009115 1.314572
v -2.137343 3.009115 1.113403
v -2.233089 3.009115 0.902005
v -1.734870 3.209106 1.678828
v -1.887065 3.209106 1.503636
v -2.021642 3.209106 1.314572
v -2.137343 3.209106 1.113403
v -1.734870 4.009104 1.678828
v -1.887065 4.009104 1.503636
v -2.021642 4.009104 1.314572
v -2.137343 4.009104 1.113403
v -2.233089 4.009104 0.902005
v -1.734869 4.209125 1.678829
v -1.887065 4.209125 1.503636
v -2.021642 4.209125 1.314573
v -2.137343 4.209125 1.113403
v -1.734870 0.809108 1.678828
v -1.887066 0.809108 1.503634
v -2.021643 0.809108 1.314571
v -2.137344 0.809108 1.113401
v -2.233090 0.809108 0.902004
v -1.734869 5.009133 1.678829
v -1.887065 5.009133 1.503636
v -2.021642 5.009133 1.314573
v -2.137343 5.009133 1.113403
v -2.233089 5.009133 0.902006
v -1.734869 5.209121 1.678829
v -1.887065 5.209121 1.503637
v -2.021641 5.209121 1.314574
v -2.137343 5.209121 1.113404
v -2.233088 5.209121 0.902007
v -2.307985 1.009109 0.682354
v -2.307985 1.209112 0.682354
v -2.233089 2.009109 0.902005
v -2.307985 2.009109 0.682355
v -2.307985 2.209113 0.682355
v -2.307985 3.009115 0.682355
v -2.233089 3.209106 0.902005
v -2.307985 3.209106 0.682355
v -2.307985 4.009104 0.682355
v -2.233090 0.609109 0.902004
v -2.307985 0.609109 0.682354
v -2.307985 0.809109 0.682354
v -2.233089 4.209125 0.902006
v -2.307985 4.209125 0.682355
v -2.307984 5.009133 0.682356
v -2.307984 5.209121 0.682357
vn 0.0000 1.0000 0.0000
vn 0.0000 -1.0000 -0.0000
vn -0.2766 0.0000 -0.9610
vn 0.3681 0.0000 0.9298
vn -0.3681 0.0000 -0.9298
vn 0.9465 0.0000 -0.3227
vn 0.9109 0.0000 -0.4126
vn 0.8669 0.0000 -0.4986
vn 0.8147 0.0000 -0.5799
vn 0.7549 0.0000 -0.6558
vn 0.6915 0.0000 0.7223
s off
f 7//1 35//1 55//1 8//1
f 5//2 33//2 34//2 6//2
f 4//2 32//2 33//2 5//2
f 11//1 60//1 36//1 12//1
f 3//2 31//2 32//2 4//2
f 2//2 30//2 31//2 3//2
f 1//2 29//2 30//2 2//2
f 12//3 38//3 123//3 36//3
f 27//4 24//4 119//4 93//4
f 40//3 14//3 113//3 124//3
f 16//3 18//3 116//3 114//3
f 37//4 11//4 60//4 122//4
f 50//1 111//1 112//1 51//1
f 17//5 115//5 69//5 15//5
f 9//2 57//2 55//2 8//2
f 13//5 70//5 102//5 39//5
f 43//3 46//3 127//3 126//3
f 45//5 107//5 125//5 42//5
f 10//2 59//2 57//2 9//2
f 19//5 79//5 115//5 17//5
f 11//2 60//2 59//2 10//2
f 30//6 29//6 36//6 60//6
f 31//7 30//7 60//7 59//7
f 32//8 31//8 59//8 57//8
f 33//9 32//9 57//9 55//9
f 34//10 33//10 55//10 35//10
f 51//5 112//5 107//5 45//5
f 23//11 85//11 89//11 26//11
f 42//5 125//5 93//5 27//5
f 41//11 94//11 103//11 44//11
f 21//5 84//5 79//5 19//5
f 39//5 102//5 122//5 37//5
f 22//3 25//3 120//3 118//3
f 44//11 103//11 108//11 47//11
f 15//5 69//5 70//5 13//5
f 24//4 21//4 84//4 119//4
f 47//1 108//1 109//1 48//1
f 26//11 89//11 94//11 41//11
f 52//1 51//1 112//1 128//1
f 48//1 109//1 110//1 49//1
f 49//1 110//1 111//1 50//1
f 101//7 102//7 70//7 68//7
f 100//8 101//8 68//8 66//8
f 99//9 100//9 66//9 64//9
f 98//10 99//10 64//10 62//10
f 68//7 70//7 69//7 67//7
f 66//8 68//8 67//8 65//8
f 64//9 66//9 65//9 63//9
f 62//10 64//10 63//10 61//10
f 67//7 69//7 115//7 74//7
f 65//8 67//8 74//8 73//8
f 63//9 65//9 73//9 72//9
f 61//10 63//10 72//10 71//10
f 74//7 115//7 79//7 78//7
f 73//8 74//8 78//8 77//8
f 72//9 73//9 77//9 76//9
f 71//10 72//10 76//10 75//10
f 78//7 79//7 84//7 83//7
f 77//8 78//8 83//8 82//8
f 76//9 77//9 82//9 81//9
f 75//10 76//10 81//10 80//10
f 83//7 84//7 119//7 88//7
f 82//8 83//8 88//8 87//8
f 81//9 82//9 87//9 86//9
f 80//10 81//10 86//10 85//10
f 88//7 119//7 93//7 92//7
f 87//8 88//8 92//8 91//8
f 86//9 87//9 91//9 90//9
f 85//10 86//10 90//10 89//10
f 35//10 55//10 54//10 53//10
f 55//9 57//9 56//9 54//9
f 57//8 59//8 58//8 56//8
f 59//7 60//7 122//7 58//7
f 53//10 54//10 99//10 98//10
f 54//9 56//9 100//9 99//9
f 56//8 58//8 101//8 100//8
f 58//7 122//7 102//7 101//7
f 92//7 93//7 125//7 97//7
f 91//8 92//8 97//8 96//8
f 90//9 91//9 96//9 95//9
f 89//10 90//10 95//10 94//10
f 97//7 125//7 107//7 106//7
f 96//8 97//8 106//8 105//8
f 95//9 96//9 105//9 104//9
f 94//10 95//10 104//10 103//10
f 106//7 107//7 112//7 111//7
f 105//8 106//8 111//8 110//8
f 104//9 105//9 110//9 109//9
f 103//10 104//10 109//10 108//10
f 102//6 124//6 113//6 70//6
f 70//6 113//6 114//6 69//6
f 69//6 114//6 116//6 115//6
f 115//6 116//6 117//6 79//6
f 79//6 117//6 118//6 84//6
f 84//6 118//6 120//6 119//6
f 119//6 120//6 121//6 93//6
f 60//6 36//6 123//6 122//6
f 122//6 123//6 124//6 102//6
f 93//6 121//6 126//6 125//6
f 125//6 126//6 127//6 107//6
f 107//6 127//6 128//6 112//6
f 25//3 28//3 121//3 120//3
f 46//3 52//3 128//3 127//3
f 14//3 16//3 114//3 113//3
f 20//3 22//3 118//3 117//3
f 28//3 43//3 126//3 121//3
f 18//3 20//3 117//3 116//3
f 38//3 40//3 124//3 123//3
