# Blender v2.79 (sub 0) OBJ File: 'Tower Map Level 1.blend'
# www.blender.org
o Platform.019_Cube.022
v -2.855327 2.009109 -0.009751
v -2.839321 2.009109 -0.285201
v -2.796805 2.009109 -0.557819
v -2.728175 2.009109 -0.825062
v -2.634074 2.009109 -1.084433
v -2.515379 2.009109 -1.333512
v -2.373198 2.009109 -1.569972
v -2.208859 2.009109 -1.791605
v -2.023897 2.009109 -1.996343
v -2.855327 2.209113 -0.009751
v -2.839321 2.209113 -0.285201
v -2.796805 2.209113 -0.557819
v -2.728175 2.209113 -0.825062
v -2.634074 2.209113 -1.084433
v -2.515379 2.209113 -1.333512
v -2.373198 2.209113 -1.569972
v -2.208860 2.209113 -1.791605
v -2.023898 2.209113 -1.996343
v -2.401592 2.009109 -0.005344
v -2.388129 2.009109 -0.237023
v -2.352369 2.009109 -0.466320
v -2.294645 2.009109 -0.691096
v -2.215497 2.009109 -0.909250
v -2.115664 2.009109 -1.118748
v -1.996077 2.009109 -1.317632
v -1.857853 2.009109 -1.504047
v -1.702283 2.009109 -1.676250
v -2.401592 2.209113 -0.005344
v -2.388129 2.209113 -0.237022
v -2.352369 2.209113 -0.466320
v -2.294645 2.209113 -0.691095
v -2.215497 2.209113 -0.909250
v -2.115664 2.209113 -1.118748
v -1.996077 2.209113 -1.317632
v -1.857853 2.209113 -1.504046
v -1.702283 2.209113 -1.676250
vn 0.0000 -1.0000 0.0000
vn 0.0000 1.0000 -0.0000
vn 0.7420 -0.0000 0.6704
vn 0.8033 -0.0000 0.5956
vn 0.8570 -0.0000 0.5153
vn 0.9027 0.0000 0.4302
vn 0.9400 -0.0000 0.3411
vn 0.9686 0.0000 0.2487
vn 0.9881 0.0000 0.1541
vn 0.9983 -0.0000 0.0580
vn 0.7054 0.0000 -0.7088
s off
f 2//1 20//1 19//1 1//1
f 3//1 21//1 20//1 2//1
f 4//1 22//1 21//1 3//1
f 5//1 23//1 22//1 4//1
f 10//2 28//2 29//2 11//2
f 6//1 24//1 23//1 5//1
f 26//3 27//3 36//3 35//3
f 25//4 26//4 35//4 34//4
f 24//5 25//5 34//5 33//5
f 23//6 24//6 33//6 32//6
f 22//7 23//7 32//7 31//7
f 21//8 22//8 31//8 30//8
f 20//9 21//9 30//9 29//9
f 19//10 20//10 29//10 28//10
f 18//11 36//11 27//11 9//11
f 17//2 35//2 36//2 18//2
f 16//2 34//2 35//2 17//2
f 15//2 33//2 34//2 16//2
f 14//2 32//2 33//2 15//2
f 9//1 27//1 26//1 8//1
f 13//2 31//2 32//2 14//2
f 8//1 26//1 25//1 7//1
f 12//2 30//2 31//2 13//2
f 7//1 25//1 24//1 6//1
f 11//2 29//2 30//2 12//2
