# Blender v2.79 (sub 0) OBJ File: 'Tower Map Level 1.blend'
# www.blender.org
o Platform.020_Cube.023
v -1.599185 0.009110 -2.347663
v -1.820037 0.009110 -2.182275
v -2.023896 0.009110 -1.996345
v -2.023896 0.209109 -1.996344
v -1.820037 0.209109 -2.182275
v -1.599185 0.209109 -2.347662
v -2.023896 1.009109 -1.996344
v -1.599186 1.009109 -2.347662
v -2.023897 1.209112 -1.996344
v -1.599186 1.209112 -2.347662
v -2.023897 2.009109 -1.996343
v -1.599187 2.009109 -2.347661
v -2.023898 2.209113 -1.996343
v -1.820039 2.209113 -2.182274
v -1.599187 2.209113 -2.347661
v -1.345061 0.009110 -1.971741
v -1.530818 0.009110 -1.832636
v -1.702282 0.009110 -1.676251
v -1.702282 0.209109 -1.676251
v -1.530818 0.209109 -1.832636
v -1.345061 0.209109 -1.971741
v -1.702282 1.009109 -1.676251
v -1.530818 1.009109 -1.832635
v -1.345061 1.009109 -1.971741
v -1.702282 1.209112 -1.676251
v -1.530818 1.209112 -1.832635
v -1.345061 1.209112 -1.971741
v -1.530819 2.009109 -1.832634
v -1.345062 2.009109 -1.971740
v -1.530819 2.209113 -1.832634
v -1.345062 2.209113 -1.971740
v -2.023896 0.609109 -1.996344
v -1.599185 0.609109 -2.347662
v -1.702282 0.609109 -1.676251
v -1.530818 0.609109 -1.832636
v -1.345061 0.609109 -1.971741
v -2.023896 0.809108 -1.996344
v -1.599186 0.809108 -2.347662
v -1.702282 0.809108 -1.676251
v -1.530818 0.809108 -1.832635
v -1.345061 0.809108 -1.971741
v -1.702283 2.009109 -1.676250
v -1.702283 2.209113 -1.676250
vn 0.0000 1.0000 -0.0000
vn 0.0000 -1.0000 -0.0000
vn -0.7054 0.0000 0.7088
vn 0.8285 0.0000 -0.5600
vn 0.5994 0.0000 0.8004
vn 0.6739 0.0000 0.7388
s off
f 14//1 30//1 31//1 15//1
f 5//2 20//2 19//2 4//2
f 37//3 39//3 22//3 7//3
f 12//4 29//4 27//4 10//4
f 6//2 21//2 20//2 5//2
f 7//3 22//3 25//3 9//3
f 33//4 36//4 21//4 6//4
f 17//5 16//5 21//5 20//5
f 18//6 17//6 20//6 19//6
f 1//2 16//2 17//2 2//2
f 2//2 17//2 18//2 3//2
f 3//3 18//3 19//3 4//3
f 6//4 21//4 16//4 1//4
f 40//5 41//5 24//5 23//5
f 39//6 40//6 23//6 22//6
f 23//5 24//5 27//5 26//5
f 22//6 23//6 26//6 25//6
f 26//5 27//5 29//5 28//5
f 25//6 26//6 28//6 42//6
f 28//5 29//5 31//5 30//5
f 42//6 28//6 30//6 43//6
f 10//4 27//4 24//4 8//4
f 9//3 25//3 42//3 11//3
f 13//1 43//1 30//1 14//1
f 15//4 31//4 29//4 12//4
f 19//6 20//6 35//6 34//6
f 20//5 21//5 36//5 35//5
f 38//4 41//4 36//4 33//4
f 4//3 19//3 34//3 32//3
f 8//4 24//4 41//4 38//4
f 34//6 35//6 40//6 39//6
f 35//5 36//5 41//5 40//5
f 32//3 34//3 39//3 37//3
