# Blender v2.79 (sub 0) OBJ File: 'Tower Map Level 1.blend'
# www.blender.org
o Platform.004_Cube.006
v 2.829372 0.009110 -0.367137
v 2.778995 0.009110 -0.638413
v 2.702670 0.009110 -0.903560
v 2.601111 0.009110 -1.160103
v 2.601111 0.209109 -1.160103
v 2.702670 0.209109 -0.903560
v 2.778995 0.209109 -0.638413
v 2.829372 0.209109 -0.367137
v 2.379761 0.009110 -0.305938
v 2.337389 0.009110 -0.534106
v 2.273193 0.009110 -0.757119
v 2.187773 0.009110 -0.972896
v 2.187773 0.209109 -0.972896
v 2.273193 0.209109 -0.757119
v 2.337389 0.209109 -0.534106
v 2.379761 0.209109 -0.305938
vn -0.9832 0.0000 0.1826
vn -0.9610 0.0000 0.2766
vn -0.9298 0.0000 0.3681
vn -0.4126 0.0000 -0.9109
vn 0.1349 0.0000 0.9909
vn 0.0000 -1.0000 0.0000
vn 0.0000 1.0000 -0.0000
s off
f 10//1 9//1 16//1 15//1
f 11//2 10//2 15//2 14//2
f 12//3 11//3 14//3 13//3
f 4//4 12//4 13//4 5//4
f 8//5 16//5 9//5 1//5
f 1//6 9//6 10//6 2//6
f 2//6 10//6 11//6 3//6
f 3//6 11//6 12//6 4//6
f 7//7 15//7 16//7 8//7
f 6//7 14//7 15//7 7//7
f 5//7 13//7 14//7 6//7
