# Blender v2.79 (sub 0) OBJ File: 'Tower Map Level 1.blend'
# www.blender.org
o Platform.007_Cube.009
v -2.844674 1.009109 0.265955
v -2.855327 1.009109 -0.009753
v -2.844674 1.209112 0.265956
v -2.855327 1.209112 -0.009752
v -2.844674 2.009109 0.265957
v -2.855327 2.009109 -0.009751
v -2.844674 2.209113 0.265957
v -2.855327 2.209113 -0.009751
v -2.392631 2.009109 0.226551
v -2.401592 2.009109 -0.005344
v -2.392631 2.209113 0.226551
v -2.401592 2.209113 -0.005344
v -2.392631 1.009109 0.226550
v -2.401592 1.009109 -0.005346
v -2.392631 1.209112 0.226551
v -2.401592 1.209112 -0.005346
vn 0.0000 -1.0000 0.0000
vn 0.0000 1.0000 0.0000
vn 0.9993 0.0000 -0.0386
vn 0.0868 0.0000 0.9962
vn 0.0097 0.0000 -1.0000
s off
f 2//1 14//1 13//1 1//1
f 7//2 11//2 12//2 8//2
f 9//3 10//3 12//3 11//3
f 6//1 10//1 9//1 5//1
f 5//4 9//4 11//4 7//4
f 13//3 14//3 16//3 15//3
f 15//3 16//3 10//3 9//3
f 1//4 13//4 15//4 3//4
f 3//4 15//4 9//4 5//4
f 6//5 10//5 16//5 4//5
f 4//5 16//5 14//5 2//5
