# Blender v2.79 (sub 0) OBJ File: 'Tower Map Level 1.blend'
# www.blender.org
o Platform.011_Cube.014
v -2.023898 2.209113 -1.996343
v -1.820039 2.209113 -2.182273
v -1.599187 2.209113 -2.347661
v -1.530819 2.009109 -1.832634
v -1.530819 2.209113 -1.832634
v -1.345062 2.209113 -1.971740
v -1.702283 2.009109 -1.676250
v -1.702283 2.209113 -1.676250
v -2.855327 2.009109 -0.009751
v -2.839321 2.009109 -0.285201
v -2.796805 2.009109 -0.557819
v -2.728175 2.009109 -0.825062
v -2.634074 2.009109 -1.084433
v -2.515379 2.009109 -1.333512
v -2.373198 2.009109 -1.569972
v -2.208859 2.009109 -1.791605
v -2.023897 2.009109 -1.996343
v -2.855327 2.209113 -0.009751
v -2.839321 2.209113 -0.285201
v -2.796805 2.209113 -0.557819
v -2.728175 2.209113 -0.825062
v -2.634074 2.209113 -1.084433
v -2.515379 2.209113 -1.333511
v -2.373198 2.209113 -1.569971
v -2.208860 2.209113 -1.791605
v -2.023898 2.209113 -1.996343
v -2.401592 2.009109 -0.005344
v -2.388129 2.009109 -0.237023
v -2.352369 2.009109 -0.466320
v -2.294645 2.009109 -0.691096
v -2.215497 2.009109 -0.909250
v -2.115664 2.009109 -1.118748
v -1.996077 2.009109 -1.317632
v -1.857853 2.009109 -1.504047
v -1.702283 2.009109 -1.676250
v -2.401592 2.209113 -0.005344
v -2.388129 2.209113 -0.237023
v -2.352369 2.209113 -0.466320
v -2.294645 2.209113 -0.691095
v -2.215497 2.209113 -0.909250
v -2.115664 2.209113 -1.118748
v -1.996077 2.209113 -1.317632
v -1.857853 2.209113 -1.504046
v -1.702283 2.209113 -1.676250
v -2.844674 2.209113 0.265957
v -2.855327 2.209113 -0.009751
v -2.401592 2.009109 -0.005344
v -2.392631 2.209113 0.226551
v -2.401592 2.209113 -0.005344
vn 0.0000 1.0000 -0.0000
vn 0.5994 0.0000 0.8004
vn 0.6739 0.0000 0.7388
vn 0.0000 -1.0000 0.0000
vn 0.7420 -0.0000 0.6704
vn 0.8033 -0.0000 0.5956
vn 0.8570 -0.0000 0.5153
vn 0.9027 -0.0000 0.4302
vn 0.9400 -0.0000 0.3411
vn 0.9686 0.0000 0.2487
vn 0.9881 0.0000 0.1541
vn 0.9983 -0.0000 0.0580
vn 0.7054 0.0000 -0.7088
vn 0.9993 0.0000 -0.0386
s off
f 2//1 5//1 6//1 3//1
f 4//2 6//2 5//2
f 7//3 4//3 5//3 8//3
f 1//1 8//1 5//1 2//1
f 10//4 28//4 27//4 9//4
f 11//4 29//4 28//4 10//4
f 12//4 30//4 29//4 11//4
f 13//4 31//4 30//4 12//4
f 18//1 36//1 37//1 19//1
f 14//4 32//4 31//4 13//4
f 34//5 35//5 44//5 43//5
f 33//6 34//6 43//6 42//6
f 32//7 33//7 42//7 41//7
f 31//8 32//8 41//8 40//8
f 30//9 31//9 40//9 39//9
f 29//10 30//10 39//10 38//10
f 28//11 29//11 38//11 37//11
f 27//12 28//12 37//12 36//12
f 26//13 44//13 35//13 17//13
f 25//1 43//1 44//1 26//1
f 24//1 42//1 43//1 25//1
f 23//1 41//1 42//1 24//1
f 22//1 40//1 41//1 23//1
f 17//4 35//4 34//4 16//4
f 21//1 39//1 40//1 22//1
f 16//4 34//4 33//4 15//4
f 20//1 38//1 39//1 21//1
f 15//4 33//4 32//4 14//4
f 19//1 37//1 38//1 20//1
f 45//1 48//1 49//1 46//1
f 49//14 48//14 47//14
